Coordinates
nRows=10
nColumns=38

# SIMM Motion File Header:
name Coordinates
datacolumns 38
datarows 10
otherdata 1
range 0.69999999999999996000 0.70899999999999996000

Units are S.I. units (second, meters, Newtons, ...)
Angles are in degrees.

endheader
time	pelvis_tx	pelvis_ty	pelvis_tz	pelvis_tilt	pelvis_list	pelvis_rotation	hip_flexion_r	hip_adduction_r	hip_rotation_r	knee_angle_r	ankle_angle_r	subtalar_angle_r	mtp_angle_r	hip_flexion_l	hip_adduction_l	hip_rotation_l	knee_angle_l	ankle_angle_l	subtalar_angle_l	mtp_angle_l	lumbar_extension	lumbar_bending	lumbar_rotation	arm_flex_r	arm_add_r	arm_rot_r	elbow_flex_r	pro_sup_r	wrist_flex_r	wrist_dev_r	arm_flex_l	arm_add_l	arm_rot_l	elbow_flex_l	pro_sup_l	wrist_flex_l	wrist_dev_l
      0.69999999999999996000	      0.83359002715276087000	      0.99581389047116708000	     -0.18251685869310277000	      3.22448550489748740000	      0.11346625144002903000	      1.18879431904414010000	    -33.29280881120722300000	      2.80267974085670480000	      0.48464841827489141000	    -23.40644393386159500000	    -21.18473097250252500000	      0.00000000000000000000	      0.00000000000000000000	     28.27684846927435200000	      2.78782325629559760000	     -6.45814620806196430000	    -22.57665080141577700000	      4.48980791318078510000	      0.00000000000000000000	      0.00000000000000000000	     -9.19520748077516890000	      1.21660020044490840000	     14.03382743212034200000	    -11.89472256048351700000	    -37.72184312274492900000	     -3.53325418443719790000	    108.94000618022115000000	    120.27369789621676000000	      0.00000000000000000000	      0.00000000000000000000	    -36.50061432439537200000	    -30.27264083897289700000	     10.88475460502261800000	     74.85753770761815000000	    105.62217713637622000000	      0.00000000000000000000	      0.00000000000000000000
      0.70099999999999996000	      0.83380922348492359000	      0.99581145668609217000	     -0.18262185414659865000	      3.24374571939056410000	      0.10589413835081915000	      1.21436532400522520000	    -33.27026883216365900000	      2.80443653036464900000	      0.40551452694180679000	    -23.76886930918302100000	    -21.32994816964224700000	      0.00000000000000000032	     -0.00000000000000000038	     28.18498194329550100000	      2.82138575617334020000	     -6.37285780151334350000	    -22.18108916051052800000	      4.38550866702381550000	      0.00000000000000000019	      0.00000000000000000059	     -9.20744497408831460000	      1.22072319719377350000	     14.03870970981900300000	    -11.91596695044127200000	    -37.67267182714003600000	     -3.48332801338071900000	    108.88770044755600000000	    120.27586176494202000000	     -0.00000000000000000010	     -0.00000000000000000213	    -36.49515678266657700000	    -30.33821694353454400000	     10.81820355525413300000	     74.93695352491063500000	    105.68800879297393000000	     -0.00000000000000000023	      0.00000000000000000066
      0.70199999999999996000	      0.83402411485944894000	      0.99579988168806843000	     -0.18272520800093472000	      3.26313078857222690000	      0.09782015837994574600	      1.23913584922617130000	    -33.24259985128505700000	      2.80591839007080380000	      0.32665479005837872000	    -24.14054921198406200000	    -21.46829427087369500000	      0.00000000000000000018	      0.00000000000000000166	     28.09550615685305900000	      2.85340127773856040000	     -6.28685364490155330000	    -21.79694355059372800000	      4.28278140173499100000	      0.00000000000000000030	     -0.00000000000000000018	     -9.22023392476131850000	      1.22510314583529920000	     14.04368198407470700000	    -11.93649089336407700000	    -37.62346809846654600000	     -3.43248531347157380000	    108.82956230777485000000	    120.27747815149030000000	     -0.00000000000000000220	     -0.00000000000000001155	    -36.48754592424139500000	    -30.40337050648559400000	     10.75242597568200000000	     75.01686378545831200000	    105.75400997531888000000	      0.00000000000000000063	      0.00000000000000000378
      0.70299999999999996000	      0.83423466193891982000	      0.99577916260439892000	     -0.18282692747299975000	      3.28263263283876980000	      0.08927808581341993600	      1.26310452008793540000	    -33.20983624898850900000	      2.80707788051706600000	      0.24808154631336723000	    -24.52138433854516800000	    -21.59984353716994900000	     -0.00000000000000000063	      0.00000000000000001100	     28.00849100857819400000	      2.88390596777198380000	     -6.20017407572968260000	    -21.42435318439786900000	      4.18174891714981990000	      0.00000000000000000339	     -0.00000000000000000434	     -9.23356838133863890000	      1.22970211056234910000	     14.04874198985719000000	    -11.95628786246411400000	    -37.57422976412840400000	     -3.38073242207788650000	    108.76559198353652000000	    120.27855699804688000000	     -0.00000000000000002115	     -0.00000000000000002493	    -36.47776955915730200000	    -30.46810149973388300000	     10.68743470296751900000	     75.09725039410636800000	    105.82017657972028000000	      0.00000000000000000377	      0.00000000000000000932
      0.70399999999999996000	      0.83444082879605397000	      0.99574930731409084000	     -0.18292699981249061000	      3.30224956434128370000	      0.08030180756299239200	      1.28625686441504250000	    -33.17202188401955700000	      2.80786183267979170000	      0.16981832730974747000	    -24.91127096319826300000	    -21.72462244624006500000	     -0.00000000000000000420	      0.00000000000000002340	     27.92399535775834000000	      2.91292800309508860000	     -6.11288582927482780000	    -21.06345129462915700000	      4.08248529085652740000	      0.00000000000000000903	     -0.00000000000000001265	     -9.24744953079793500000	      1.23448028738581210000	     14.05390013119669100000	    -11.97535240104714700000	    -37.52495727192224000000	     -3.32807498473348360000	    108.69579339561841000000	    120.27910906613613000000	     -0.00000000000000003919	     -0.00000000000000003093	    -36.46581453205275400000	    -30.53240940565554600000	     10.62324508771318500000	     75.17809241234574800000	    105.88650163214574000000	      0.00000000000000000638	      0.00000000000000001166
      0.70499999999999996000	      0.83464257936830377000	      0.99571032379559821000	     -0.18302541300419828000	      3.32198002152583260000	      0.07092527583506497100	      1.30857864900893750000	    -33.12920161827718600000	      2.80821770284613860000	      0.09188856288212332600	    -25.31010234166803100000	    -21.84266033286776200000	     -0.00000000000000000610	      0.00000000000000003614	     27.84207527413346000000	      2.94049657961808420000	     -6.02505634364856930000	    -20.71436561665078100000	      3.98506266428341730000	      0.00000000000000001609	     -0.00000000000000002333	     -9.26187898350211650000	      1.23939786281981970000	     14.05916611016000700000	    -11.99367922596331800000	    -37.47565096837347200000	     -3.27451817496445190000	    108.62017219328187000000	    120.27914478431204000000	     -0.00000000000000006836	     -0.00000000000000004494	    -36.45166732948479900000	    -30.59629366785570800000	     10.55987218578151900000	     75.25936776742067000000	    105.95297792290032000000	      0.00000000000000001029	      0.00000000000000000915
      0.70599999999999996000	      0.83483987758591571000	      0.99566222002015292000	     -0.18312215594450321000	      3.34182250780223630000	      0.06118247685550443800	      1.33005602138041820000	    -33.08142119289582400000	      2.80809366459702850000	      0.01431547738560244200	    -25.71776872992836300000	    -21.95398993636206300000	     -0.00000000000000000785	      0.00000000000000004933	     27.76278407724306500000	      2.96664194337133540000	     -5.93675337904160290000	    -20.37721828740560400000	      3.88955168134773240000	      0.00000000000000002075	     -0.00000000000000003030	     -9.27685868233013090000	      1.24441505937508530000	     14.06454878583406100000	    -12.01126322139647800000	    -37.42631106309647700000	     -3.22006670091811250000	    108.53873574703032000000	    120.27867422053482000000	     -0.00000000000000009396	     -0.00000000000000006359	    -36.43531409727850700000	    -30.65975369404048900000	     10.49733071470952900000	     75.34105329590534000000	    106.01959802152264000000	      0.00000000000000001629	      0.00000000000000000662
      0.70699999999999996000	      0.83503268752031612000	      0.99560500393476059000	     -0.18321721847586234000	      3.36177559181099020000	      0.05110740366878118600	      1.35067553343271830000	    -33.02872718086224800000	      2.80743865323447130000	     -0.06287790361789046000	    -26.13415743176714700000	    -22.05864735289028600000	     -0.00000000000000000908	      0.00000000000000005838	     27.68617231014470200000	      2.99139536574173000000	     -5.84804494833121780000	    -20.05212575406092800000	      3.79602146844246850000	      0.00000000000000002811	     -0.00000000000000004286	     -9.29239088027660820000	      1.24949216808348230000	     14.07005617066483100000	    -12.02809943727377000000	    -37.37693762434036400000	     -3.16472480501871270000	    108.45149316077928000000	    120.27770706619702000000	     -0.00000000000000012185	     -0.00000000000000009395	    -36.41674066623597400000	    -30.72278884489335800000	     10.43563504205306300000	     75.42312477164533400000	    106.08635426898449000000	      0.00000000000000001972	      0.00000000000000000190
      0.70799999999999996000	      0.83522097278011276000	      0.99553868302611948000	     -0.18331059148388329000	      3.38183783851475980000	      0.04073402471963332600	      1.37042424921177600000	    -32.97116692698055800000	      2.80620243792635020000	     -0.13966881060363709000	    -26.55915292054091700000	    -22.15667198761341400000	     -0.00000000000000000997	      0.00000000000000007345	     27.61228790377528200000	      3.01478916078720480000	     -5.75899918816561310000	    -19.73919878153990500000	      3.70453965589090210000	      0.00000000000000003726	     -0.00000000000000006038	     -9.30847821043944810000	      1.25458958416942060000	     14.07569534647357800000	    -12.04418306114046000000	    -37.32753056982099300000	     -3.10849625537251840000	    108.35845524597030000000	    120.27625262738445000000	     -0.00000000000000014943	     -0.00000000000000011859	    -36.39593255087044100000	    -30.78539844533228000000	     10.37479917176794900000	     75.50555693433703700000	    106.15323876754984000000	      0.00000000000000002282	     -0.00000000000000000464
      0.70899999999999996000	      0.83540469493732039000	      0.99546326342270708000	     -0.18340226654226416000	      3.40200788781790210000	      0.03009623924640638900	      1.38928957766535090000	    -32.90878879438354700000	      2.80433552417079390000	     -0.21603453582530677000	    -26.99263705544652900000	    -22.24810655980509500000	     -0.00000000000000001112	      0.00000000000000008681	     27.54117538703972900000	      3.03685665675803310000	     -5.66968446001543300000	    -19.43854251378402900000	      3.61517220473291760000	      0.00000000000000004860	     -0.00000000000000007712	     -9.32512421123989380000	      1.25966781021894310000	     14.08147265394922700000	    -12.05950937130461900000	    -37.27808970438638200000	     -3.05138433097800070000	    108.25963446731330000000	    120.27431979390778000000	     -0.00000000000000017407	     -0.00000000000000013485	    -36.37287494118060500000	    -30.84758182338571700000	     10.31483671202189000000	     75.58832356121315900000	    106.22024337727501000000	      0.00000000000000002449	     -0.00000000000000001018
